<svg viewBox="0 0 114 33" width="114px" height="33px" version="1.1" xmlns="http://www.w3.org/2000/svg" style="fill-rule:evenodd;clip-rule:evenodd;stroke-linejoin:round;stroke-miterlimit:1.41421;"><g><path d="M48.902,19.594l0,4.904c0.946,0 1.894,-0.02 2.728,-0.02c2.435,0 2.931,-1.399 2.931,-2.433c0,-1.013 -0.654,-2.451 -3.066,-2.451l-2.593,0Zm0,-1.662l2.367,0c2.12,0 2.593,-1.135 2.593,-2.087c0,-0.993 -0.428,-2.087 -2.548,-2.087c-0.631,0 -1.691,0 -2.412,-0.021l0,4.195Zm2.457,-5.816c3.315,0 4.916,1.379 4.916,3.668c0,1.277 -0.857,2.391 -2.12,2.838c1.533,0.405 2.864,1.803 2.864,3.546c0,2.249 -1.624,3.951 -5.366,3.951c-1.827,0 -3.292,-0.041 -4.984,-0.061l-0.135,-0.142l0,-13.597l0.135,-0.142c1.647,-0.02 3.202,-0.061 4.69,-0.061" style="fill:#fff;"/><path d="M61.186,18.743c0.879,-0.021 1.871,-0.041 2.502,-0.041c2.21,0 2.751,-1.256 2.751,-2.431c0,-1.237 -0.541,-2.452 -2.751,-2.452c-0.654,0 -1.736,0 -2.502,-0.021l0,4.945Zm4.847,1.216c0.744,0.243 1.285,0.932 1.601,1.722l0.992,2.371c0.226,0.547 0.496,1.094 1.014,1.459c-0.315,0.425 -1.014,0.669 -1.623,0.669c-0.901,0 -1.217,-0.446 -1.578,-1.318l-1.128,-2.735c-0.382,-0.932 -0.879,-1.662 -2.277,-1.662l-1.848,0l0,5.573c-0.361,0.06 -0.813,0.081 -1.195,0.081c-0.361,0 -0.834,-0.021 -1.173,-0.081l0,-13.719l0.135,-0.142c1.691,-0.02 3.315,-0.061 4.848,-0.061c3.134,0 5.118,1.46 5.118,4.155c0,1.864 -1.24,3.222 -2.886,3.688" style="fill:#fff;"/><path d="M74.959,20.931c0.361,0 0.97,-0.02 1.15,-0.02l2.254,0c0.158,0 0.767,0.02 1.128,0.02l-1.038,-2.938c-0.405,-1.175 -0.879,-2.594 -1.194,-3.668l-0.113,0c-0.225,0.912 -0.631,2.189 -0.879,2.939l-1.308,3.667Zm-0.609,1.743l-1.195,3.384c-0.293,0.061 -0.676,0.081 -1.037,0.081c-0.429,0 -0.857,-0.061 -1.173,-0.141l-0.067,-0.102l5.096,-13.698c0.36,-0.061 0.992,-0.082 1.375,-0.082c0.383,0 1.014,0.021 1.353,0.082l5.051,13.698c-0.339,0.202 -0.88,0.284 -1.398,0.284c-0.744,0 -1.128,-0.244 -1.421,-1.135l-0.834,-2.371c-0.383,0 -1.173,0.02 -1.353,0.02l-3.089,0c-0.181,0 -0.925,-0.02 -1.308,-0.02" style="fill:#fff;"/><path d="M85.892,23.12c1.308,0.769 2.977,1.378 4.532,1.378c1.827,0 2.863,-0.791 2.886,-1.905c0,-0.953 -0.744,-1.682 -2.052,-2.188l-2.66,-1.034c-1.894,-0.73 -3.089,-1.783 -3.089,-3.506c0,-2.209 2.074,-3.931 5.096,-3.931c1.871,0 3.607,0.527 4.78,1.054c-0.023,0.608 -0.384,1.276 -0.88,1.682c-1.172,-0.527 -2.705,-0.953 -3.855,-0.953c-1.669,0 -2.706,0.831 -2.706,1.905c0,0.892 0.767,1.398 1.871,1.824l2.616,1.013c1.939,0.729 3.382,1.966 3.382,3.769c0,2.331 -1.804,4.073 -5.524,4.073c-1.872,0 -3.901,-0.568 -5.412,-1.52c0.068,-0.627 0.519,-1.297 1.015,-1.661" style="fill:#fff;"/><path d="M98.615,12.198c0.338,-0.061 0.834,-0.082 1.195,-0.082c0.361,0 0.834,0.021 1.195,0.082l0,13.84c-0.361,0.06 -0.834,0.081 -1.195,0.081c-0.361,0 -0.857,-0.021 -1.195,-0.081l0,-13.84Z" style="fill:#fff;"/><path d="M113.814,24.173c0,0.224 -0.023,0.588 -0.068,0.852c-0.135,0.689 -0.699,1.033 -1.556,1.033l-5.884,0c-0.812,0 -1.399,-0.466 -1.399,-1.337l0,-12.483l0.158,-0.122l0.902,0c0.992,0 1.354,0.426 1.354,1.379l0,10.76c0.698,-0.061 1.397,-0.082 2.006,-0.082l4.487,0Z" style="fill:#fff;"/><path d="M47.902,6.504c0.338,-0.01 0.705,-0.02 0.858,-0.02c0.909,0 1.092,-0.746 1.092,-1.287c0,-0.551 -0.183,-1.287 -1.092,-1.287c-0.255,0 -0.551,0 -0.858,-0.01l0,2.604Zm0.94,1.042l-0.94,0l0,2.318c-0.214,0.041 -0.49,0.05 -0.684,0.05c-0.183,0 -0.469,-0.009 -0.684,-0.05l0,-6.923l0.072,-0.062c0.816,-0.02 1.501,-0.04 2.236,-0.04c1.409,0 2.42,0.765 2.42,2.358c0,1.542 -1.011,2.349 -2.42,2.349" style="fill:#fff;"/><path d="M53.233,7.199c0.143,0 0.357,-0.01 0.459,-0.01l0.878,0c0.092,0 0.286,0.01 0.429,0.01l-0.306,-1.042c-0.174,-0.582 -0.399,-1.368 -0.552,-1.981l-0.061,0c-0.102,0.521 -0.316,1.256 -0.449,1.726l-0.398,1.297Zm-0.338,1.082l-0.479,1.593c-0.174,0.04 -0.378,0.051 -0.593,0.051c-0.214,0 -0.49,-0.031 -0.653,-0.092l-0.051,-0.072l2.277,-6.872c0.224,-0.03 0.562,-0.051 0.797,-0.051c0.214,0 0.571,0.021 0.786,0.062l2.236,6.872c-0.194,0.112 -0.521,0.174 -0.786,0.174c-0.439,0 -0.654,-0.154 -0.817,-0.736l-0.286,-0.929c-0.153,0 -0.398,0.01 -0.501,0.01l-1.429,0c-0.102,0 -0.337,0 -0.501,-0.01" style="fill:#fff;"/><path d="M58.635,4.779c0,-0.276 0.009,-0.47 0.009,-0.756l-0.009,0c-0.144,0 -0.471,0.01 -0.614,0.01l-1.133,0c-0.041,-0.204 -0.051,-0.408 -0.051,-0.572c0,-0.153 0.01,-0.367 0.051,-0.572l4.881,0c0.041,0.143 0.071,0.357 0.071,0.531c0,0.449 -0.234,0.613 -0.735,0.613l-0.479,0c-0.144,0 -0.47,-0.01 -0.613,-0.01l-0.01,0c0,0.286 0.01,0.48 0.01,0.756l0,5.085c-0.236,0.041 -0.491,0.05 -0.694,0.05c-0.195,0 -0.45,-0.009 -0.684,-0.05l0,-5.085Z" style="fill:#fff;"/><path d="M64.077,6.126c0.357,-0.02 0.745,-0.03 0.939,-0.03c0.889,0 1.092,-0.541 1.092,-1.103c0,-0.571 -0.203,-1.103 -1.092,-1.103c-0.246,0 -0.623,0 -0.939,-0.01l0,2.246Zm2.164,0.736c0.368,0.133 0.612,0.479 0.756,0.898l0.378,1.032c0.101,0.285 0.255,0.561 0.48,0.745c-0.174,0.245 -0.552,0.409 -0.909,0.409c-0.501,0 -0.675,-0.276 -0.868,-0.807l-0.429,-1.216c-0.153,-0.408 -0.358,-0.735 -0.95,-0.735l-0.622,0l0,2.676c-0.225,0.041 -0.491,0.05 -0.685,0.05c-0.173,0 -0.459,-0.009 -0.674,-0.05l0,-6.923l0.072,-0.062c0.817,-0.02 1.593,-0.041 2.328,-0.041c1.419,0 2.399,0.705 2.399,2.155c0,0.97 -0.612,1.634 -1.276,1.869" style="fill:#fff;"/><path d="M68.957,2.889c0.205,-0.04 0.501,-0.051 0.684,-0.051c0.194,0 0.46,0.011 0.684,0.051l0,6.975c-0.224,0.041 -0.49,0.05 -0.684,0.05c-0.183,0 -0.479,-0.009 -0.684,-0.05l0,-6.975Z" style="fill:#fff;"/><path d="M73.46,7.199c0.143,0 0.358,-0.01 0.46,-0.01l0.878,0c0.092,0 0.286,0.01 0.429,0.01l-0.307,-1.042c-0.173,-0.582 -0.398,-1.368 -0.551,-1.981l-0.061,0c-0.103,0.521 -0.317,1.256 -0.45,1.726l-0.398,1.297Zm-0.337,1.082l-0.48,1.593c-0.173,0.04 -0.378,0.051 -0.592,0.051c-0.214,0 -0.49,-0.031 -0.654,-0.092l-0.05,-0.072l2.277,-6.872c0.224,-0.03 0.561,-0.051 0.796,-0.051c0.215,0 0.572,0.021 0.786,0.062l2.236,6.872c-0.193,0.112 -0.52,0.174 -0.786,0.174c-0.439,0 -0.653,-0.154 -0.817,-0.736l-0.286,-0.929c-0.152,0 -0.398,0.01 -0.5,0.01l-1.429,0c-0.102,0 -0.338,0 -0.501,-0.01" style="fill:#fff;"/><path d="M82.089,7.199c0.143,0 0.357,-0.01 0.459,-0.01l0.878,0c0.092,0 0.286,0.01 0.429,0.01l-0.307,-1.042c-0.172,-0.582 -0.398,-1.368 -0.551,-1.981l-0.061,0c-0.102,0.521 -0.316,1.256 -0.449,1.726l-0.398,1.297Zm-0.338,1.082l-0.479,1.593c-0.174,0.04 -0.378,0.051 -0.593,0.051c-0.214,0 -0.49,-0.031 -0.653,-0.092l-0.051,-0.072l2.277,-6.872c0.225,-0.03 0.562,-0.051 0.797,-0.051c0.214,0 0.571,0.021 0.786,0.062l2.236,6.872c-0.194,0.112 -0.521,0.174 -0.786,0.174c-0.439,0 -0.654,-0.154 -0.817,-0.736l-0.286,-0.929c-0.153,0 -0.398,0.01 -0.501,0.01l-1.429,0c-0.102,0 -0.337,0 -0.501,-0.01" style="fill:#fff;"/><path d="M87.408,2.9c0.296,-0.051 0.685,-0.072 0.919,-0.072c0.245,0 0.582,0.021 0.868,0.072l0.787,2.828c0.071,0.286 0.326,1.338 0.387,1.746l0.072,0c0.061,-0.408 0.316,-1.46 0.388,-1.746l0.776,-2.828c0.307,-0.051 0.633,-0.072 0.868,-0.072c0.245,0 0.623,0.021 0.929,0.072l0.541,6.944c-0.194,0.05 -0.469,0.07 -0.694,0.07c-0.215,0 -0.409,-0.009 -0.603,-0.04l-0.194,-3.278c-0.041,-0.633 -0.081,-1.573 -0.081,-2.215l-0.072,0l-1.195,4.441c-0.203,0.031 -0.51,0.051 -0.704,0.051c-0.184,0 -0.49,-0.02 -0.694,-0.051l-1.195,-4.441l-0.071,0c-0.011,0.642 -0.041,1.582 -0.082,2.215l-0.194,3.278c-0.194,0.031 -0.398,0.04 -0.613,0.04c-0.214,0 -0.49,-0.02 -0.684,-0.07l0.541,-6.944Z" style="fill:#fff;"/><path d="M96.854,7.199c0.143,0 0.357,-0.01 0.459,-0.01l0.879,0c0.091,0 0.285,0.01 0.428,0.01l-0.306,-1.042c-0.173,-0.582 -0.399,-1.368 -0.551,-1.981l-0.062,0c-0.102,0.521 -0.316,1.256 -0.449,1.726l-0.398,1.297Zm-0.337,1.082l-0.48,1.593c-0.174,0.04 -0.377,0.051 -0.592,0.051c-0.215,0 -0.49,-0.031 -0.654,-0.092l-0.051,-0.072l2.277,-6.872c0.225,-0.03 0.562,-0.051 0.797,-0.051c0.214,0 0.572,0.021 0.786,0.062l2.236,6.872c-0.194,0.112 -0.521,0.174 -0.786,0.174c-0.439,0 -0.654,-0.154 -0.817,-0.736l-0.286,-0.929c-0.153,0 -0.398,0.01 -0.5,0.01l-1.43,0c-0.102,0 -0.337,0 -0.5,-0.01" style="fill:#fff;"/><path d="M104.307,3.921c-0.387,0 -0.704,0 -1.113,-0.01l0,4.931c0.409,-0.009 0.726,-0.009 1.113,-0.009c1.338,0 1.532,-1.339 1.532,-2.461c0,-1.124 -0.194,-2.451 -1.532,-2.451m1.828,5.483c-0.449,0.368 -1.276,0.51 -1.828,0.51c-0.857,0 -1.521,-0.02 -2.409,-0.04l-0.072,-0.061l0,-6.872l0.072,-0.062c0.878,-0.03 1.552,-0.041 2.409,-0.041c0.552,0 1.379,0.144 1.828,0.511c0.939,0.755 1.113,1.838 1.113,3.023c0,1.194 -0.163,2.276 -1.113,3.032" style="fill:#fff;"/><path d="M109.832,7.199c0.143,0 0.357,-0.01 0.459,-0.01l0.878,0c0.092,0 0.286,0.01 0.429,0.01l-0.306,-1.042c-0.174,-0.582 -0.399,-1.368 -0.552,-1.981l-0.061,0c-0.102,0.521 -0.316,1.256 -0.449,1.726l-0.398,1.297Zm-0.337,1.082l-0.48,1.593c-0.174,0.04 -0.378,0.051 -0.593,0.051c-0.214,0 -0.49,-0.031 -0.653,-0.092l-0.051,-0.072l2.277,-6.872c0.224,-0.03 0.562,-0.051 0.797,-0.051c0.214,0 0.571,0.021 0.785,0.062l2.237,6.872c-0.194,0.112 -0.521,0.174 -0.786,0.174c-0.439,0 -0.654,-0.154 -0.817,-0.736l-0.286,-0.929c-0.153,0 -0.398,0.01 -0.501,0.01l-1.429,0c-0.102,0 -0.337,0 -0.5,-0.01" style="fill:#fff;"/><path d="M55.404,0.501c0.202,0.106 0.478,0.426 0.549,0.729l-1.691,1.006c-0.171,-0.062 -0.326,-0.288 -0.377,-0.458l1.519,-1.277Z" style="fill:#fff;"/><path d="M48.221,30.283l0.78,-0.005c0.351,0 0.526,0.165 0.526,0.496l0,1.305c-0.427,0.136 -0.875,0.204 -1.345,0.204c-0.239,0 -0.449,-0.04 -0.633,-0.119c-0.184,-0.08 -0.338,-0.194 -0.462,-0.343c-0.124,-0.149 -0.217,-0.332 -0.28,-0.548c-0.063,-0.217 -0.094,-0.463 -0.094,-0.737c0,-0.301 0.043,-0.564 0.131,-0.787c0.088,-0.223 0.205,-0.409 0.352,-0.558c0.148,-0.149 0.317,-0.261 0.509,-0.336c0.192,-0.074 0.392,-0.111 0.601,-0.111c0.43,0 0.834,0.119 1.211,0.357c-0.003,0.053 -0.016,0.107 -0.037,0.162c-0.022,0.054 -0.048,0.107 -0.08,0.158c-0.031,0.052 -0.068,0.098 -0.109,0.139c-0.042,0.042 -0.083,0.077 -0.127,0.107c-0.274,-0.179 -0.552,-0.268 -0.833,-0.268c-0.54,0 -0.81,0.377 -0.81,1.132c0,0.751 0.277,1.126 0.829,1.126c0.077,0 0.15,-0.003 0.221,-0.009c0.071,-0.007 0.142,-0.017 0.211,-0.03l0,-0.333c0,-0.076 0.001,-0.142 0.003,-0.199c0.001,-0.056 0.004,-0.104 0.007,-0.143l-0.248,0c-0.142,0 -0.241,-0.028 -0.295,-0.082c-0.055,-0.055 -0.082,-0.14 -0.082,-0.256c0,-0.099 0.018,-0.207 0.054,-0.322" style="fill:#fff;"/><path d="M52.594,31.285c0.09,0.258 0.27,0.387 0.541,0.387c0.136,0 0.246,-0.034 0.33,-0.101c0.085,-0.068 0.151,-0.154 0.199,-0.258c0.048,-0.105 0.08,-0.221 0.097,-0.35c0.016,-0.13 0.024,-0.257 0.024,-0.383c0,-0.115 -0.004,-0.244 -0.012,-0.387c-0.008,-0.142 -0.032,-0.275 -0.072,-0.399c-0.04,-0.124 -0.103,-0.228 -0.189,-0.313c-0.086,-0.084 -0.211,-0.126 -0.377,-0.126c-0.159,0 -0.28,0.04 -0.364,0.121c-0.085,0.081 -0.148,0.181 -0.189,0.3c-0.042,0.119 -0.067,0.246 -0.077,0.38c-0.01,0.134 -0.015,0.252 -0.015,0.355c0,0.152 0.007,0.288 0.022,0.407c0.015,0.119 0.042,0.241 0.082,0.367m-0.402,0.685c-0.354,-0.294 -0.531,-0.779 -0.531,-1.454c0,-0.291 0.034,-0.547 0.102,-0.767c0.068,-0.22 0.165,-0.405 0.292,-0.553c0.128,-0.149 0.283,-0.262 0.465,-0.338c0.182,-0.076 0.387,-0.114 0.615,-0.114c0.229,0 0.435,0.038 0.618,0.114c0.184,0.076 0.339,0.19 0.467,0.34c0.127,0.151 0.225,0.336 0.293,0.556c0.067,0.22 0.101,0.474 0.101,0.762c0,0.288 -0.034,0.542 -0.101,0.762c-0.068,0.22 -0.166,0.404 -0.293,0.553c-0.128,0.149 -0.283,0.262 -0.467,0.338c-0.183,0.076 -0.389,0.114 -0.618,0.114c-0.377,0 -0.691,-0.104 -0.943,-0.313" style="fill:#fff;"/><path d="M58.019,31.543l0.65,-2.725c0.08,-0.019 0.182,-0.03 0.308,-0.03c0.172,0 0.308,0.019 0.407,0.055l0.03,0.04l-0.928,3.325c-0.189,0.02 -0.378,0.03 -0.569,0.03c-0.19,0 -0.327,-0.024 -0.412,-0.072c-0.084,-0.048 -0.148,-0.143 -0.191,-0.285l-0.824,-2.993c0.179,-0.076 0.326,-0.114 0.442,-0.114c0.139,0 0.242,0.031 0.308,0.094c0.066,0.063 0.117,0.162 0.154,0.298l0.382,1.414c0.059,0.222 0.122,0.523 0.189,0.904c0.006,0.039 0.024,0.059 0.054,0.059" style="fill:#fff;"/><path d="M62.317,31.206l-0.005,0.357l0,0.005c0.152,-0.006 0.274,-0.01 0.366,-0.01l1.148,0c0,0.123 -0.005,0.217 -0.015,0.283c-0.039,0.255 -0.208,0.382 -0.506,0.382l-1.32,0c-0.143,0 -0.254,-0.041 -0.335,-0.124c-0.081,-0.083 -0.122,-0.195 -0.122,-0.337l0,-2.909l0.035,-0.035l2.139,0c0.02,0.096 0.03,0.201 0.03,0.313c0,0.112 -0.023,0.23 -0.07,0.352l-1.35,0l0.005,0.358l0,0.347c0.086,-0.003 0.198,-0.005 0.336,-0.005l0.756,0c0.03,0.093 0.045,0.199 0.045,0.318c0,0.119 -0.015,0.228 -0.045,0.327l-1.092,0l0,0.378Z" style="fill:#fff;"/><path d="M66.869,29.379l0,0.978c0.148,0 0.276,-0.003 0.382,-0.007c0.106,-0.005 0.191,-0.025 0.255,-0.06c0.065,-0.035 0.114,-0.084 0.147,-0.147c0.033,-0.064 0.05,-0.155 0.05,-0.275c0,-0.323 -0.156,-0.484 -0.467,-0.484l-0.206,0c-0.061,0 -0.115,-0.001 -0.161,-0.005m1.643,0.486c0,0.11 -0.017,0.213 -0.05,0.311c-0.033,0.097 -0.077,0.185 -0.132,0.263c-0.054,0.078 -0.119,0.146 -0.193,0.203c-0.075,0.058 -0.152,0.102 -0.231,0.132c0.172,0.063 0.299,0.215 0.382,0.456l0.149,0.422c0.056,0.166 0.139,0.288 0.248,0.368c-0.049,0.066 -0.124,0.121 -0.223,0.166c-0.099,0.045 -0.209,0.067 -0.328,0.067c-0.119,0 -0.211,-0.034 -0.278,-0.102c-0.066,-0.068 -0.127,-0.186 -0.183,-0.355l-0.179,-0.521c-0.036,-0.099 -0.085,-0.175 -0.147,-0.228c-0.061,-0.053 -0.153,-0.08 -0.275,-0.08l-0.203,0l0,1.241c-0.106,0.02 -0.239,0.03 -0.397,0.03c-0.159,0 -0.29,-0.01 -0.392,-0.03l0,-3.365l0.034,-0.035c0.288,-0.006 0.53,-0.011 0.727,-0.015c0.197,-0.003 0.352,-0.004 0.464,-0.004c0.182,0 0.348,0.022 0.497,0.067c0.149,0.044 0.275,0.111 0.38,0.201c0.104,0.089 0.185,0.201 0.243,0.337c0.057,0.136 0.087,0.293 0.087,0.471" style="fill:#fff;"/><path d="M73.505,28.784l0.034,0.034l0,3.375c-0.132,0.03 -0.288,0.045 -0.469,0.045c-0.18,0 -0.34,-0.01 -0.479,-0.03l-0.779,-1.777c-0.093,-0.201 -0.187,-0.435 -0.283,-0.699l-0.015,0.005c0.04,0.483 0.06,0.977 0.06,1.484l0,0.987c-0.103,0.02 -0.227,0.03 -0.372,0.03c-0.146,0 -0.269,-0.01 -0.368,-0.03l0,-3.375c0.126,-0.03 0.277,-0.045 0.454,-0.045c0.177,0 0.335,0.011 0.474,0.03l0.77,1.772c0.139,0.328 0.241,0.579 0.308,0.755l0.019,-0.01c-0.039,-0.46 -0.059,-0.948 -0.059,-1.464l0,-0.606c0,-0.172 0.034,-0.295 0.104,-0.37c0.07,-0.074 0.182,-0.111 0.338,-0.111l0.263,0Z" style="fill:#fff;"/><path d="M76.726,31.285c0.089,0.258 0.27,0.387 0.541,0.387c0.135,0 0.246,-0.034 0.33,-0.101c0.084,-0.068 0.15,-0.154 0.198,-0.258c0.048,-0.105 0.081,-0.221 0.097,-0.35c0.017,-0.13 0.025,-0.257 0.025,-0.383c0,-0.115 -0.004,-0.244 -0.012,-0.387c-0.009,-0.142 -0.033,-0.275 -0.072,-0.399c-0.04,-0.124 -0.103,-0.228 -0.189,-0.313c-0.086,-0.084 -0.212,-0.126 -0.377,-0.126c-0.159,0 -0.281,0.04 -0.365,0.121c-0.085,0.081 -0.147,0.181 -0.189,0.3c-0.041,0.119 -0.067,0.246 -0.077,0.38c-0.01,0.134 -0.014,0.252 -0.014,0.355c0,0.152 0.007,0.288 0.022,0.407c0.015,0.119 0.042,0.241 0.082,0.367m-0.402,0.685c-0.354,-0.294 -0.531,-0.779 -0.531,-1.454c0,-0.291 0.033,-0.547 0.101,-0.767c0.068,-0.22 0.166,-0.405 0.293,-0.553c0.128,-0.149 0.283,-0.262 0.464,-0.338c0.182,-0.076 0.387,-0.114 0.616,-0.114c0.228,0 0.434,0.038 0.618,0.114c0.183,0.076 0.339,0.19 0.466,0.34c0.128,0.151 0.225,0.336 0.293,0.556c0.068,0.22 0.102,0.474 0.102,0.762c0,0.288 -0.034,0.542 -0.102,0.762c-0.068,0.22 -0.165,0.404 -0.293,0.553c-0.127,0.149 -0.283,0.262 -0.466,0.338c-0.184,0.076 -0.39,0.114 -0.618,0.114c-0.377,0 -0.692,-0.104 -0.943,-0.313" style="fill:#fff;"/><path d="M84.583,29.493l0.004,0.387l0,0.313l1.068,0c0.026,0.099 0.04,0.208 0.04,0.325c0,0.118 -0.014,0.226 -0.04,0.325l-1.068,0l0,1.365c-0.105,0.02 -0.236,0.03 -0.394,0.03c-0.158,0 -0.289,-0.01 -0.395,-0.03l0,-3.36l0.035,-0.03l2.124,0c0.02,0.083 0.03,0.186 0.03,0.311c0,0.124 -0.034,0.215 -0.102,0.275c-0.068,0.06 -0.175,0.089 -0.321,0.089l-0.981,0Z" style="fill:#fff;"/><path d="M88.94,31.206l-0.004,0.357l0,0.005c0.151,-0.006 0.273,-0.01 0.366,-0.01l1.147,0c0,0.123 -0.005,0.217 -0.015,0.283c-0.039,0.255 -0.208,0.382 -0.506,0.382l-1.32,0c-0.142,0 -0.254,-0.041 -0.335,-0.124c-0.081,-0.083 -0.122,-0.195 -0.122,-0.337l0,-2.909l0.035,-0.035l2.139,0c0.02,0.096 0.03,0.201 0.03,0.313c0,0.112 -0.023,0.23 -0.069,0.352l-1.35,0l0.004,0.358l0,0.347c0.086,-0.003 0.198,-0.005 0.336,-0.005l0.756,0c0.03,0.093 0.045,0.199 0.045,0.318c0,0.119 -0.015,0.228 -0.045,0.327l-1.092,0l0,0.378Z" style="fill:#fff;"/><path d="M93.983,31.618c0.437,0 0.655,-0.368 0.655,-1.102c0,-0.738 -0.218,-1.107 -0.655,-1.107l-0.28,0c-0.081,0 -0.152,-0.002 -0.211,-0.005l0,2.219c0.059,-0.004 0.13,-0.005 0.211,-0.005l0.28,0Zm0.913,0.372c-0.106,0.086 -0.244,0.149 -0.417,0.188c-0.172,0.04 -0.362,0.06 -0.57,0.06c-0.103,0 -0.251,-0.002 -0.445,-0.005c-0.193,-0.003 -0.435,-0.008 -0.727,-0.015l-0.034,-0.034l0,-3.341l0.034,-0.035c0.192,-0.006 0.392,-0.011 0.598,-0.014c0.207,-0.004 0.425,-0.006 0.653,-0.006c0.281,0 0.516,0.045 0.705,0.135c0.189,0.089 0.339,0.211 0.451,0.367c0.113,0.155 0.192,0.338 0.239,0.548c0.046,0.211 0.069,0.436 0.069,0.678c0,0.331 -0.038,0.617 -0.114,0.858c-0.076,0.242 -0.223,0.447 -0.442,0.616" style="fill:#fff;"/><path d="M98.5,31.206l-0.005,0.357l0,0.005c0.152,-0.006 0.274,-0.01 0.366,-0.01l1.148,0c0,0.123 -0.005,0.217 -0.015,0.283c-0.04,0.255 -0.209,0.382 -0.506,0.382l-1.321,0c-0.142,0 -0.254,-0.041 -0.335,-0.124c-0.081,-0.083 -0.121,-0.195 -0.121,-0.337l0,-2.909l0.034,-0.035l2.14,0c0.019,0.096 0.029,0.201 0.029,0.313c0,0.112 -0.023,0.23 -0.069,0.352l-1.35,0l0.005,0.358l0,0.347c0.085,-0.003 0.197,-0.005 0.336,-0.005l0.756,0c0.029,0.093 0.044,0.199 0.044,0.318c0,0.119 -0.015,0.228 -0.044,0.327l-1.092,0l0,0.378Z" style="fill:#fff;"/><path d="M103.051,29.379l0,0.978c0.149,0 0.276,-0.003 0.382,-0.007c0.106,-0.005 0.191,-0.025 0.256,-0.06c0.065,-0.035 0.113,-0.084 0.146,-0.147c0.033,-0.064 0.05,-0.155 0.05,-0.275c0,-0.323 -0.156,-0.484 -0.467,-0.484l-0.206,0c-0.061,0 -0.115,-0.001 -0.161,-0.005m1.643,0.486c0,0.11 -0.017,0.213 -0.05,0.311c-0.033,0.097 -0.077,0.185 -0.131,0.263c-0.055,0.078 -0.119,0.146 -0.194,0.203c-0.074,0.058 -0.151,0.102 -0.231,0.132c0.172,0.063 0.3,0.215 0.382,0.456l0.149,0.422c0.057,0.166 0.139,0.288 0.249,0.368c-0.05,0.066 -0.124,0.121 -0.224,0.166c-0.099,0.045 -0.208,0.067 -0.327,0.067c-0.119,0 -0.212,-0.034 -0.278,-0.102c-0.066,-0.068 -0.128,-0.186 -0.184,-0.355l-0.179,-0.521c-0.036,-0.099 -0.085,-0.175 -0.146,-0.228c-0.061,-0.053 -0.153,-0.08 -0.275,-0.08l-0.204,0l0,1.241c-0.106,0.02 -0.238,0.03 -0.397,0.03c-0.159,0 -0.29,-0.01 -0.392,-0.03l0,-3.365l0.035,-0.035c0.288,-0.006 0.53,-0.011 0.727,-0.015c0.197,-0.003 0.351,-0.004 0.464,-0.004c0.182,0 0.347,0.022 0.496,0.067c0.149,0.044 0.276,0.111 0.38,0.201c0.104,0.089 0.185,0.201 0.243,0.337c0.058,0.136 0.087,0.293 0.087,0.471" style="fill:#fff;"/><path d="M107.826,30.873l0.198,-0.005l0.363,0c0.016,0 0.045,0.001 0.086,0.003c0.042,0.001 0.073,0.002 0.092,0.002l-0.084,-0.308c-0.08,-0.278 -0.171,-0.619 -0.273,-1.022l-0.03,0c-0.026,0.142 -0.106,0.458 -0.238,0.948l-0.114,0.382Zm0.015,0.626c-0.09,0 -0.156,-0.002 -0.199,-0.005l-0.213,0.719c-0.08,0.02 -0.191,0.03 -0.333,0.03c-0.159,0 -0.288,-0.018 -0.387,-0.055l-0.025,-0.039l1.092,-3.331c0.129,-0.019 0.28,-0.029 0.452,-0.029c0.195,0 0.35,0.011 0.466,0.034l1.072,3.336c-0.116,0.063 -0.246,0.094 -0.392,0.094c-0.172,0 -0.292,-0.03 -0.362,-0.09c-0.07,-0.059 -0.129,-0.173 -0.179,-0.342l-0.094,-0.327c-0.043,0.003 -0.107,0.005 -0.193,0.005l-0.705,0Z" style="fill:#fff;"/><path d="M113.138,31.538l0.862,0c0,0.133 -0.008,0.246 -0.025,0.34c-0.017,0.095 -0.069,0.176 -0.159,0.243c-0.089,0.068 -0.206,0.102 -0.352,0.102l-1.122,0c-0.142,0 -0.254,-0.041 -0.337,-0.124c-0.083,-0.083 -0.124,-0.195 -0.124,-0.337l0,-2.944l0.034,-0.034l0.291,0c0.309,0 0.464,0.169 0.464,0.506l0,2.268c0.146,-0.013 0.302,-0.02 0.468,-0.02" style="fill:#fff;"/><path d="M19.895,14.475c0.216,0 0.432,0.004 0.646,0.013c-0.214,-0.009 -0.43,-0.013 -0.646,-0.013" style="fill:#fff;"/><path d="M20.541,14.488c0.428,0.018 0.852,0.053 1.271,0.105c-0.419,-0.052 -0.843,-0.087 -1.271,-0.105" style="fill:#fff;"/><path d="M29.118,17.554c-0.321,-0.242 -0.652,-0.471 -0.992,-0.687c0.34,0.216 0.671,0.445 0.992,0.687" style="fill:#fff;"/><path d="M26.427,16.612c-0.357,-0.172 -0.725,-0.332 -1.094,-0.474c-1.132,-0.437 -2.318,-0.735 -3.526,-0.885c-0.41,-0.051 -0.828,-0.086 -1.242,-0.103c-0.21,-0.009 -0.42,-0.013 -0.631,-0.013c-0.919,0 -1.839,0.084 -2.735,0.248c-0.656,0.121 -1.31,0.288 -1.945,0.496c-0.416,0.136 -0.832,0.294 -1.236,0.467c-0.799,0.343 -1.574,0.76 -2.303,1.238c-0.361,0.237 -0.716,0.493 -1.056,0.76c-2.585,2.036 -4.455,4.904 -5.264,8.074c-0.043,0.168 -0.083,0.338 -0.12,0.51c5.006,-3.22 12.852,-7.242 23.027,-9.244c-0.107,-0.072 -0.214,-0.142 -0.322,-0.211c-0.498,-0.317 -1.021,-0.608 -1.553,-0.863" style="fill:#fff;"/><path d="M17.485,5.488l25.007,11.03l-25.007,-11.03Z" style="fill:#fff;"/><path d="M10.408,17.757c0.348,-0.274 0.709,-0.533 1.08,-0.777c-0.371,0.244 -0.732,0.503 -1.08,0.777" style="fill:#fff;"/><path d="M32.96,21.745c-14,0.811 -23.619,5.247 -28.447,8.089c-2.144,1.262 -3.341,2.207 -3.559,2.383l0,0.028l41.539,0l0,-10.475c-3.374,-0.206 -6.553,-0.198 -9.533,-0.025" style="fill:#fff;"/><rect x="0.955" y="2.84" width="41.538" height="0.004" style="fill:#fff;"/><path d="M4.748,27.341c0.073,-0.448 0.165,-0.89 0.275,-1.324c0.847,-3.318 2.774,-6.203 5.385,-8.26c0.348,-0.274 0.709,-0.533 1.08,-0.777c0.743,-0.487 1.531,-0.912 2.356,-1.267c0.413,-0.177 0.835,-0.336 1.265,-0.477c0.645,-0.212 1.31,-0.382 1.99,-0.507c0.906,-0.167 1.841,-0.254 2.796,-0.254c0.216,0 0.432,0.004 0.646,0.013c0.428,0.018 0.852,0.053 1.271,0.105c1.255,0.157 2.464,0.465 3.606,0.906c0.381,0.147 0.755,0.309 1.12,0.484c0.548,0.264 1.079,0.559 1.588,0.884c0.34,0.216 0.671,0.445 0.992,0.687c1.026,-0.189 2.076,-0.357 3.148,-0.5c2.683,-0.358 5.506,-0.562 8.457,-0.561c0.585,0.001 1.174,0.009 1.769,0.025l-25.007,-11.03l-16.53,13.338l0,11.301c0.225,-0.193 1.519,-1.278 3.755,-2.761c0.013,-0.008 0.026,-0.017 0.038,-0.025" style="fill:#fff;"/><path d="M17.076,4.982c0.118,-0.095 0.263,-0.144 0.409,-0.144c0.089,0 0.178,0.018 0.262,0.055l24.746,10.915l0,-12.964l-41.539,0l0,15.147l16.122,-13.009Z" style="fill:#fff;"/><path d="M42.492,16.518l0.001,0.001l-0.001,-0.001Z" style="fill:#fff;"/><path d="M42.493,16.519l0,0l-0.001,0l0.001,0Z" style="fill:#fff;"/><path d="M3.478,28.232c-0.381,0.269 -0.72,0.517 -1.017,0.738c0.297,-0.221 0.636,-0.469 1.017,-0.738" style="fill:#fff;"/><path d="M4.743,27.366c-0.462,0.307 -0.884,0.597 -1.265,0.866c0.381,-0.269 0.803,-0.559 1.265,-0.866c0.002,-0.008 0.004,-0.016 0.005,-0.025c0,0 0,0 0,0c-0.001,0.009 -0.003,0.017 -0.005,0.025" style="fill:#fff;"/><path d="M40.723,16.494c0.585,0 1.175,0.008 1.77,0.025l-0.001,0c-0.595,-0.017 -1.184,-0.025 -1.769,-0.025" style="fill:#fff;"/><path d="M2.461,28.97c0.297,-0.221 0.636,-0.469 1.017,-0.738c0.381,-0.269 0.803,-0.559 1.265,-0.866c0.002,-0.008 0.004,-0.016 0.005,-0.025c-0.012,0.009 -0.025,0.017 -0.038,0.025c-2.236,1.484 -3.53,2.568 -3.755,2.761l0,0.033c0,0 0.516,-0.451 1.506,-1.19" style="fill:#fff;"/></g></svg>