<svg viewBox="0 0 149 28" width="149px" height="28px" version="1.1" xmlns="http://www.w3.org/2000/svg" style="fill-rule:evenodd;clip-rule:evenodd;stroke-linejoin:round;stroke-miterlimit:1.41421;"><g><path d="M63.262,17.604c-2.77,1.329 -4.467,2.12 -6.983,2.12c-4.015,0 -6.87,-2.459 -6.87,-5.909c0,-3.421 2.884,-5.852 6.983,-5.852c2.375,0 4.524,0.791 6.644,1.978l0,-4.297c-1.894,-1.131 -4.297,-1.696 -6.983,-1.696c-7.379,0 -11.592,4.806 -11.592,9.951c0,4.977 3.732,9.84 11.224,9.84c2.856,0 4.892,-0.537 7.577,-1.922l0,-4.213Z" style="fill:#fff;"/><path d="M82.202,16.558l-5.938,0l2.827,-7.493l3.111,7.493Zm-0.396,-12.101l-5.57,0l-7.775,19.282l5.089,0l1.442,-3.817l8.623,0l1.584,3.817l5.173,0l-8.566,-19.282Z" style="fill:#fff;"/><path d="M99.63,7.991l1.696,0c2.601,0 3.534,0.594 3.534,2.234c0,1.442 -0.792,2.233 -2.997,2.233l-2.233,0l0,-4.467Zm-4.806,-3.534l0,19.282l4.806,0l0,-7.747l3.817,0c4.438,0 6.361,-3.11 6.361,-5.824c0,-2.629 -1.979,-5.711 -6.39,-5.711l-8.594,0Z" style="fill:#fff;"/><path d="M128.808,20.205l-9.415,0l0,-4.637l8.793,0l0,-3.534l-8.793,0l0,-4.043l9.217,0l0,-3.534l-14.023,0l0,19.282l14.221,0l0,-3.534Z" style="fill:#fff;"/><path d="M147.552,5.446c-2.432,-1.046 -4.383,-1.498 -6.531,-1.498c-4.467,0 -7.351,2.205 -7.351,5.541c0,6.927 9.811,5.768 9.811,8.935c0,1.131 -0.99,1.781 -2.828,1.781c-2.121,0 -3.817,-0.65 -6.588,-2.488l0,4.156c1.923,0.989 3.591,1.866 6.956,1.866c4.297,0 7.407,-2.148 7.407,-5.852c0,-6.73 -9.811,-5.91 -9.811,-8.822c0,-0.961 1.103,-1.583 2.827,-1.583c1.641,0 3.309,0.481 6.108,1.724l0,-3.76Z" style="fill:#fff;"/><path d="M29.97,25.362c-1.435,0.488 -3.133,0.964 -5.141,1.319c-2.001,0.355 -4.312,0.59 -6.98,0.602l-0.002,0l-0.041,0c-0.579,0.001 -1.127,-0.017 -1.642,-0.053c-0.52,-0.036 -1.019,-0.089 -1.496,-0.155c-2.44,-0.34 -4.183,-1.03 -4.999,-1.532l-0.001,-0.001c-0.316,-0.194 -0.608,-0.395 -0.879,-0.601c-0.272,-0.208 -0.52,-0.419 -0.746,-0.634c-1.109,-1.052 -1.713,-2.196 -1.999,-3.313c-1.498,-0.603 -2.664,-1.265 -3.545,-2.019c-0.945,-0.809 -1.56,-1.719 -1.902,-2.769l0,-0.001l0,0c-0.117,-0.358 -0.18,-0.714 -0.197,-1.064c-0.018,-0.348 0.01,-0.689 0.077,-1.022c0.33,-1.658 1.613,-3.08 2.875,-3.991l0,-0.001c0.185,-0.133 0.398,-0.273 0.633,-0.416c0.228,-0.138 0.487,-0.283 0.775,-0.434c1.437,-0.749 3.439,-1.51 5.492,-1.791c0.726,-0.099 1.444,-0.168 2.148,-0.211c0.659,-0.04 1.317,-0.059 1.969,-0.061c0.81,-0.54 1.632,-1.041 2.459,-1.505c0.861,-0.483 1.726,-0.925 2.588,-1.33c4.377,-2.052 8.712,-3.153 12.057,-3.677c0.038,-0.036 0.076,-0.067 0.113,-0.092c0.209,-0.145 0.464,-0.206 0.689,-0.206l0,0l0,0.002c0.306,0 0.583,0.129 0.782,0.338c0.199,0.208 0.321,0.496 0.321,0.813l0.002,0l0,0.001l-0.002,0c0,0.317 -0.122,0.605 -0.321,0.813c-0.2,0.209 -0.476,0.338 -0.782,0.339l0,0.001l0,0l-0.001,0l0,-0.001c-0.166,-0.001 -0.322,-0.038 -0.461,-0.105c-0.035,-0.017 -0.068,-0.035 -0.1,-0.055c-0.083,-0.051 -0.159,-0.113 -0.226,-0.185c-0.673,0.083 -1.355,0.188 -2.043,0.316c-0.77,0.143 -1.531,0.31 -2.282,0.499c-3.479,0.882 -6.938,2.294 -10.039,4.123c0.279,0.019 0.551,0.041 0.816,0.065c0.61,0.055 1.21,0.125 1.788,0.203c0.099,-0.072 0.212,-0.139 0.335,-0.201c0.175,-0.088 0.374,-0.168 0.591,-0.24c1.051,-0.354 2.515,-0.533 3.256,-0.604c1.858,-0.177 3.335,-0.246 4.68,-0.182c1.359,0.064 2.579,0.261 3.912,0.613l0.006,0.001l0.002,0c0.932,0.246 1.77,0.546 2.524,0.885c0.754,0.34 1.416,0.717 1.993,1.12c3.027,2.107 3.818,4.924 3.677,6.643l-0.001,0.002c-0.023,0.281 -0.063,0.58 -0.124,0.893c-0.06,0.308 -0.139,0.62 -0.239,0.932c-0.522,1.613 -1.641,3.296 -3.817,4.583c-0.236,0.14 -0.462,0.265 -0.681,0.379c-0.203,0.105 -0.418,0.209 -0.644,0.312c-0.177,0.139 -0.369,0.28 -0.576,0.421c-0.214,0.146 -0.439,0.29 -0.672,0.43c-1.189,0.713 -2.596,1.334 -3.979,1.804m-17.951,-16.388c-0.464,0.032 -0.935,0.071 -1.41,0.116l-0.002,0.001c-0.305,0.029 -0.63,0.076 -0.966,0.139c-0.339,0.064 -0.69,0.144 -1.046,0.239c-1.831,0.49 -3.815,1.386 -5.141,2.572c-0.319,0.286 -0.662,0.666 -0.941,1.114c-0.322,0.518 -0.557,1.126 -0.562,1.774c-0.005,0.644 0.218,1.345 0.812,2.064c0.353,0.426 0.834,0.857 1.472,1.287c0.333,0.224 0.677,0.439 1.049,0.649l0,0.001c0.181,0.103 0.366,0.202 0.556,0.299c0.001,-0.206 0.012,-0.408 0.028,-0.604c0.093,-1.07 0.387,-1.997 0.662,-2.644l0,0c0.215,-0.505 0.471,-1.005 0.756,-1.496c0.282,-0.484 0.589,-0.951 0.912,-1.399c1.228,-1.702 2.696,-3.144 3.821,-4.112m23.907,9.134c0.067,0.739 -0.077,1.374 -0.363,1.924c-0.284,0.549 -0.712,1.022 -1.213,1.438c-0.67,0.282 -1.365,0.485 -2.06,0.643c-0.729,0.164 -1.444,0.276 -2.133,0.371c-1.843,0.254 -3.569,0.363 -5.166,0.376c-1.6,0.013 -3.075,-0.071 -4.414,-0.204c-2.226,-0.223 -4.081,-0.582 -5.507,-0.858c-0.269,-0.053 -0.522,-0.101 -0.823,-0.158l-0.003,-0.001l-0.001,0l0,0.001c-1.629,-0.304 -2.982,-0.596 -4.137,-0.894c-1.04,-0.268 -1.911,-0.538 -2.674,-0.824c-0.082,-0.682 -0.039,-1.279 0.028,-1.693c0.015,-0.094 0.029,-0.172 0.044,-0.238c0.014,-0.064 0.028,-0.122 0.042,-0.171l0,0.001l0,-0.001l0,-0.002c0.638,-2.245 1.989,-4.257 3.609,-5.948c0.318,-0.332 0.645,-0.651 0.977,-0.954c0.326,-0.297 0.668,-0.59 1.023,-0.877l0.001,0c0.387,-0.313 0.782,-0.616 1.18,-0.907c0.11,-0.081 0.189,-0.138 0.236,-0.171c0.053,-0.038 0.099,-0.071 0.137,-0.099c1.676,-0.011 2.899,0.098 3.891,0.188l0.12,0.011l0.001,0c3.852,0.345 6.73,1.085 8.429,1.632c0.331,0.107 0.615,0.205 0.853,0.291c0.228,0.083 0.421,0.159 0.572,0.221l0.001,0c3.517,1.438 5.712,3.491 6.724,5.211c0.191,0.324 0.338,0.634 0.443,0.924c0.101,0.28 0.162,0.537 0.183,0.766l0,0.002Zm-22.525,7.186l0.013,0.003c0.435,0.088 0.896,0.164 1.38,0.226c0.491,0.062 0.996,0.11 1.514,0.143c2.707,0.168 5.94,-0.062 9.488,-0.793l0.001,0l0.002,0c0.342,-0.071 0.666,-0.143 0.968,-0.214c0.296,-0.069 0.615,-0.15 0.954,-0.24c0.064,-0.017 0.128,-0.035 0.192,-0.052c-0.53,0.035 -1.038,0.055 -1.515,0.07l-0.006,0.001c-0.84,0.026 -1.707,0.018 -2.586,-0.018c-0.875,-0.036 -1.765,-0.099 -2.654,-0.183c-4.551,-0.431 -8.988,-1.401 -11.082,-1.95c-0.55,-0.143 -1.067,-0.287 -1.553,-0.432c-0.198,-0.059 -0.393,-0.118 -0.586,-0.18c0.104,0.22 0.226,0.44 0.368,0.654c0.824,1.248 2.351,2.404 5.102,2.965m25.039,-7.397l0,0l0.002,-0.001c0.104,-0.18 0.212,-0.39 0.313,-0.629c0.101,-0.238 0.192,-0.494 0.262,-0.763c0.367,-1.398 0.252,-3.291 -1.605,-5.176l-0.006,-0.005c-0.352,-0.357 -0.733,-0.685 -1.138,-0.985c-0.404,-0.298 -0.836,-0.571 -1.293,-0.819c-2.353,-1.274 -5.287,-1.817 -8.345,-1.761l-0.013,0.001c-0.053,0.001 -0.201,0.008 -0.428,0.021c-0.203,0.011 -0.479,0.029 -0.814,0.053c-0.82,0.06 -1.907,0.144 -2.712,0.222c1.346,0.25 2.593,0.523 3.814,0.883c1.657,0.489 3.266,1.138 5.01,2.106c0.254,0.14 0.497,0.282 0.73,0.424c2.811,1.711 4.216,3.536 4.798,5.18c0.365,1.031 0.407,1.992 0.268,2.815c0.032,-0.035 0.064,-0.07 0.096,-0.105c0.384,-0.425 0.74,-0.908 1.062,-1.46l-0.001,-0.001Z" style="fill:#fff;"/><path d="M23.814,16.14l0,0.001l-0.002,0c0,0.928 -0.375,1.768 -0.982,2.375c-0.607,0.607 -1.447,0.983 -2.375,0.983l0,0.001l-0.001,0l0,0l0,-0.001c-0.929,0 -1.769,-0.376 -2.376,-0.983c-0.606,-0.607 -0.982,-1.447 -0.982,-2.375l-0.002,0l0,-0.001l0,0l0.002,0c0,-0.928 0.376,-1.768 0.983,-2.376c0.606,-0.607 1.446,-0.982 2.375,-0.982l0,-0.002l0,0l0,0.002c0.929,0 1.769,0.376 2.376,0.982c0.607,0.608 0.982,1.448 0.982,2.376l0.002,0l0,0Z" style="fill:#fff;"/></g></svg>