<svg width="145px" height="79px" viewBox="0 0 145 79" version="1.1" xmlns="http://www.w3.org/2000/svg" style="fill-rule:evenodd;clip-rule:evenodd;stroke-linejoin:round;stroke-miterlimit:1.41421;"><g><path d="M54.713,32.28c-0.147,0.106 -0.321,0.23 -0.523,0.374c-0.181,0.13 -0.483,0.347 -0.901,0.65c-1.52,1.106 -3.029,2.258 -4.508,3.446l-0.003,0.004c-1.353,1.086 -2.661,2.204 -3.904,3.331c-1.269,1.154 -2.517,2.363 -3.732,3.622c-6.186,6.425 -11.344,14.07 -13.778,22.602l0,0.007l-0.002,0l-0.002,0c-0.053,0.184 -0.106,0.408 -0.16,0.65c-0.055,0.249 -0.112,0.553 -0.167,0.901c-0.224,1.384 -0.379,3.299 -0.2,5.495c-0.058,4.316 -2.366,6.044 -5.208,5.014c-5.719,-2.29 -10.172,-4.804 -13.535,-7.669c-3.609,-3.076 -5.958,-6.536 -7.263,-10.524l0,-0.004c-0.446,-1.36 -0.688,-2.714 -0.754,-4.045c-0.066,-1.32 0.042,-2.616 0.295,-3.881c1.259,-6.3 6.158,-11.703 10.976,-15.163l0.002,-0.002c0.706,-0.508 1.52,-1.042 2.419,-1.581c0.867,-0.521 1.856,-1.076 2.957,-1.65c5.49,-2.846 13.131,-5.739 20.972,-6.808c2.772,-0.376 5.514,-0.635 8.202,-0.799c2.517,-0.155 5.029,-0.221 7.518,-0.232c3.091,-2.051 6.232,-3.957 9.391,-5.719c3.288,-1.835 6.591,-3.516 9.883,-5.053c16.713,-7.802 33.264,-11.979 46.038,-13.973c0.147,-0.136 0.287,-0.251 0.432,-0.346c0.797,-0.553 1.768,-0.784 2.629,-0.784l0,0.008c1.169,0 2.223,0.489 2.984,1.284c0.761,0.791 1.231,1.885 1.231,3.09l0.004,0l-0.004,0c0,1.203 -0.47,2.3 -1.231,3.093c-0.761,0.793 -1.815,1.284 -2.984,1.284l0,0.006l-0.002,0l0,-0.006c-0.636,0 -1.231,-0.141 -1.764,-0.396c-0.132,-0.066 -0.264,-0.138 -0.379,-0.21c-0.314,-0.191 -0.607,-0.432 -0.865,-0.704c-2.569,0.315 -5.175,0.715 -7.8,1.199c-2.94,0.544 -5.847,1.18 -8.71,1.9c-13.287,3.35 -26.493,8.715 -38.34,15.665c-4.045,2.479 -4.479,3.163 -9.214,5.924m-10.271,0.423c-1.774,0.125 -3.572,0.27 -5.386,0.446l-0.006,0c-1.169,0.113 -2.404,0.292 -3.69,0.532c-1.294,0.24 -2.633,0.544 -3.994,0.905c-6.99,1.864 -14.568,5.269 -19.629,9.773c-1.22,1.084 -2.527,2.534 -3.594,4.232c-1.228,1.97 -2.127,4.274 -2.146,6.74c-0.02,2.449 0.833,5.112 3.103,7.839c1.343,1.619 3.182,3.262 5.617,4.893c1.271,0.856 2.587,1.67 4.003,2.467l0,0.005c0.695,0.389 1.398,0.767 2.125,1.135c0.007,-0.778 0.045,-1.55 0.111,-2.296c0.353,-4.066 1.475,-7.588 2.527,-10.045l0,-0.002c0.82,-1.915 1.794,-3.817 2.886,-5.679c1.076,-1.839 2.251,-3.616 3.484,-5.318c4.687,-6.466 10.292,-11.946 14.589,-15.627" style="fill:#fff;"/><path d="M11.186,51.819l1.641,0l0,3.174c0,0.317 -0.049,0.612 -0.147,0.893c-0.098,0.278 -0.251,0.522 -0.459,0.731c-0.21,0.212 -0.431,0.359 -0.663,0.444c-0.319,0.117 -0.702,0.174 -1.15,0.174c-0.257,0 -0.542,-0.015 -0.846,-0.053c-0.306,-0.034 -0.561,-0.106 -0.767,-0.215c-0.206,-0.11 -0.396,-0.263 -0.566,-0.461c-0.172,-0.2 -0.287,-0.399 -0.35,-0.614c-0.102,-0.338 -0.153,-0.64 -0.153,-0.899l0,-3.174l1.643,0l0,3.248c0,0.291 0.08,0.521 0.24,0.68c0.159,0.168 0.382,0.251 0.669,0.251c0.283,0 0.506,-0.083 0.668,-0.242c0.159,-0.164 0.24,-0.391 0.24,-0.689l0,-3.248Zm5.752,4.445l-1.875,0l-0.257,0.88l-1.682,0l2.003,-5.325l1.791,0l2.003,5.325l-1.722,0l-0.261,-0.88Zm-0.347,-1.152l-0.589,-1.915l-0.582,1.915l1.171,0Zm2.857,-3.293l3.08,0c0.512,0 0.907,0.128 1.181,0.383c0.275,0.257 0.411,0.565 0.411,0.942c0,0.314 -0.096,0.586 -0.292,0.812c-0.131,0.146 -0.323,0.267 -0.574,0.352c0.381,0.096 0.664,0.251 0.844,0.479c0.179,0.223 0.27,0.501 0.27,0.837c0,0.281 -0.064,0.529 -0.193,0.753c-0.128,0.216 -0.304,0.388 -0.523,0.518c-0.14,0.083 -0.349,0.143 -0.627,0.174c-0.37,0.047 -0.616,0.075 -0.738,0.075l-2.839,0l0,-5.325Zm1.66,2.092l0.714,0c0.257,0 0.436,-0.047 0.538,-0.136c0.1,-0.089 0.151,-0.215 0.151,-0.383c0,-0.153 -0.051,-0.276 -0.151,-0.361c-0.102,-0.089 -0.277,-0.132 -0.525,-0.132l-0.727,0l0,1.012Zm0,2.089l0.837,0c0.285,0 0.485,-0.051 0.6,-0.151c0.116,-0.102 0.176,-0.236 0.176,-0.406c0,-0.157 -0.06,-0.28 -0.174,-0.378c-0.113,-0.096 -0.317,-0.144 -0.604,-0.144l-0.835,0l0,1.079Z" style="fill:#fff;"/><path d="M49.73,64.504l-2.312,0l-0.317,1.086l-2.074,0l2.467,-6.566l2.213,0l2.468,6.566l-2.124,0l-0.321,-1.086Zm-0.425,-1.418l-0.727,-2.359l-0.72,2.359l1.447,0Z" style="fill:#fff;"/><path d="M52.827,59.024l3.798,0c0.634,0 1.121,0.158 1.458,0.474c0.338,0.308 0.508,0.7 0.508,1.161c0,0.389 -0.119,0.718 -0.361,0.999c-0.164,0.185 -0.399,0.333 -0.708,0.44c0.472,0.112 0.819,0.308 1.042,0.584c0.221,0.277 0.334,0.623 0.334,1.04c0,0.34 -0.081,0.648 -0.239,0.922c-0.159,0.27 -0.374,0.485 -0.65,0.642c-0.168,0.098 -0.427,0.172 -0.769,0.215c-0.457,0.057 -0.761,0.089 -0.912,0.089l-3.501,0l0,-6.566Zm2.047,5.157l1.035,0c0.351,0 0.595,-0.064 0.74,-0.185c0.142,-0.126 0.212,-0.294 0.212,-0.5c0,-0.193 -0.068,-0.353 -0.21,-0.472c-0.143,-0.116 -0.391,-0.172 -0.746,-0.172l-1.031,0l0,1.329Zm0,-2.583l0.882,0c0.317,0 0.536,-0.053 0.661,-0.161c0.128,-0.111 0.187,-0.268 0.187,-0.474c0,-0.192 -0.059,-0.338 -0.187,-0.447c-0.125,-0.108 -0.34,-0.161 -0.646,-0.161l-0.897,0l0,1.243Z" style="fill:#fff;"/><path d="M66.61,65.589l0,-6.565l3.381,0c0.625,0 1.106,0.055 1.439,0.163c0.33,0.107 0.598,0.304 0.802,0.596c0.202,0.289 0.304,0.646 0.304,1.064c0,0.366 -0.079,0.679 -0.23,0.942c-0.162,0.266 -0.372,0.48 -0.644,0.648c-0.176,0.098 -0.41,0.185 -0.712,0.255c0.24,0.081 0.417,0.162 0.529,0.245c0.072,0.051 0.181,0.168 0.323,0.342c0.143,0.176 0.238,0.313 0.285,0.408l0.982,1.902l-2.295,0l-1.082,-2.004c-0.139,-0.259 -0.262,-0.431 -0.37,-0.51c-0.145,-0.098 -0.308,-0.149 -0.498,-0.149l-0.178,0l0,2.663l-2.036,0Zm2.036,-3.908l0.856,0c0.092,0 0.27,-0.026 0.538,-0.085c0.134,-0.028 0.245,-0.098 0.33,-0.209c0.085,-0.108 0.125,-0.233 0.125,-0.378c0,-0.213 -0.066,-0.374 -0.2,-0.489c-0.136,-0.112 -0.387,-0.172 -0.759,-0.172l-0.89,0l0,1.333Z" style="fill:#fff;"/><path d="M83.678,64.504l-2.315,0l-0.316,1.086l-2.073,0l2.47,-6.566l2.209,0l2.469,6.566l-2.123,0l-0.321,-1.086Zm-0.423,-1.418l-0.729,-2.359l-0.721,2.359l1.45,0Z" style="fill:#fff;"/><path d="M89.859,59.024l3.014,0c0.593,0 1.076,0.079 1.441,0.243c0.368,0.161 0.666,0.393 0.904,0.692c0.24,0.304 0.412,0.655 0.523,1.055c0.104,0.399 0.159,0.824 0.159,1.271c0,0.701 -0.079,1.245 -0.242,1.636c-0.155,0.383 -0.379,0.71 -0.661,0.965c-0.287,0.268 -0.589,0.438 -0.916,0.525c-0.442,0.122 -0.848,0.179 -1.208,0.179l-3.014,0l0,-6.566Zm2.026,1.488l0,3.588l0.497,0c0.428,0 0.727,-0.051 0.906,-0.145c0.178,-0.091 0.321,-0.255 0.421,-0.488c0.1,-0.236 0.153,-0.615 0.153,-1.14c0,-0.695 -0.113,-1.173 -0.34,-1.428c-0.226,-0.255 -0.604,-0.387 -1.129,-0.387l-0.508,0Z" style="fill:#fff;"/><path d="M96.711,62.31c0,-1.069 0.3,-1.904 0.895,-2.504c0.597,-0.597 1.428,-0.895 2.495,-0.895c1.093,0 1.934,0.296 2.525,0.882c0.593,0.587 0.889,1.41 0.889,2.466c0,0.765 -0.13,1.396 -0.387,1.885c-0.261,0.491 -0.631,0.874 -1.124,1.15c-0.487,0.274 -1.093,0.406 -1.824,0.406c-0.74,0 -1.352,-0.119 -1.837,-0.35c-0.486,-0.236 -0.879,-0.611 -1.181,-1.121c-0.302,-0.512 -0.451,-1.15 -0.451,-1.919m2.028,0.011c0,0.663 0.123,1.137 0.372,1.428c0.242,0.289 0.578,0.436 1.007,0.436c0.434,0 0.77,-0.145 1.01,-0.425c0.238,-0.285 0.357,-0.795 0.357,-1.526c0,-0.623 -0.123,-1.076 -0.374,-1.359c-0.251,-0.287 -0.587,-0.425 -1.014,-0.425c-0.408,0 -0.74,0.141 -0.986,0.436c-0.247,0.287 -0.372,0.767 -0.372,1.435" style="fill:#fff;"/><path d="M114.828,65.589l0,-6.565l3.381,0c0.627,0 1.106,0.055 1.437,0.163c0.33,0.107 0.6,0.304 0.806,0.596c0.2,0.289 0.3,0.646 0.3,1.064c0,0.366 -0.077,0.679 -0.234,0.942c-0.155,0.266 -0.366,0.48 -0.638,0.648c-0.174,0.098 -0.414,0.185 -0.714,0.255c0.242,0.081 0.416,0.162 0.531,0.245c0.073,0.051 0.183,0.168 0.321,0.342c0.145,0.176 0.238,0.313 0.285,0.408l0.982,1.902l-2.293,0l-1.082,-2.004c-0.136,-0.259 -0.264,-0.431 -0.37,-0.51c-0.145,-0.098 -0.313,-0.149 -0.495,-0.149l-0.179,0l0,2.663l-2.038,0Zm2.038,-3.908l0.852,0c0.09,0 0.273,-0.026 0.538,-0.085c0.136,-0.028 0.247,-0.098 0.334,-0.209c0.081,-0.108 0.125,-0.233 0.125,-0.378c0,-0.213 -0.068,-0.374 -0.202,-0.489c-0.134,-0.112 -0.391,-0.172 -0.756,-0.172l-0.891,0l0,1.333Z" style="fill:#fff;"/><path d="M107.669,59.024l3.8,0c0.636,0 1.118,0.158 1.458,0.474c0.34,0.308 0.508,0.7 0.508,1.161c0,0.389 -0.123,0.718 -0.361,0.999c-0.164,0.185 -0.402,0.333 -0.71,0.44c0.47,0.112 0.82,0.308 1.041,0.584c0.226,0.277 0.334,0.623 0.334,1.04c0,0.34 -0.079,0.648 -0.24,0.922c-0.153,0.27 -0.372,0.485 -0.646,0.642c-0.172,0.098 -0.427,0.172 -0.774,0.215c-0.455,0.057 -0.757,0.089 -0.908,0.089l-3.502,0l0,-6.566Zm2.049,2.574l0.882,0c0.314,0 0.535,-0.053 0.661,-0.161c0.123,-0.111 0.183,-0.268 0.183,-0.474c0,-0.192 -0.06,-0.338 -0.183,-0.447c-0.126,-0.108 -0.34,-0.161 -0.644,-0.161l-0.899,0l0,1.243Zm0,2.583l1.033,0c0.35,0 0.595,-0.064 0.739,-0.185c0.145,-0.126 0.215,-0.294 0.215,-0.5c0,-0.193 -0.07,-0.353 -0.213,-0.472c-0.146,-0.116 -0.389,-0.172 -0.746,-0.172l-1.028,0l0,1.329Z" style="fill:#fff;"/><path d="M125.974,64.504l-2.315,0l-0.314,1.086l-2.073,0l2.468,-6.566l2.211,0l2.467,6.566l-2.123,0l-0.321,-1.086Zm-0.423,-1.418l-0.727,-2.359l-0.72,2.359l1.447,0Z" style="fill:#fff;"/><path d="M139.262,59.024l2.03,0l0,4.946l3.165,0l0,1.62l-5.195,0l0,-6.566Z" style="fill:#fff;"/><rect x="135.773" y="59.024" width="2.036" height="6.566" style="fill:#fff;"/><path d="M128.714,63.418l1.932,-0.121c0.043,0.317 0.126,0.555 0.255,0.716c0.206,0.268 0.512,0.4 0.897,0.4c0.287,0 0.51,-0.068 0.67,-0.204c0.157,-0.134 0.233,-0.293 0.233,-0.474c0,-0.168 -0.072,-0.321 -0.223,-0.455c-0.151,-0.136 -0.495,-0.261 -1.041,-0.38c-0.893,-0.202 -1.522,-0.464 -1.9,-0.797c-0.385,-0.334 -0.576,-0.757 -0.576,-1.269c0,-0.338 0.095,-0.655 0.295,-0.957c0.196,-0.302 0.487,-0.535 0.882,-0.708c0.391,-0.172 0.929,-0.257 1.613,-0.257c0.842,0 1.48,0.155 1.92,0.468c0.44,0.314 0.703,0.81 0.786,1.49l-1.911,0.112c-0.053,-0.295 -0.157,-0.514 -0.323,-0.648c-0.161,-0.134 -0.384,-0.2 -0.671,-0.2c-0.236,0 -0.415,0.051 -0.534,0.151c-0.119,0.1 -0.178,0.221 -0.178,0.366c0,0.102 0.046,0.198 0.144,0.28c0.098,0.09 0.323,0.166 0.687,0.241c0.886,0.191 1.515,0.389 1.898,0.582c0.387,0.2 0.671,0.436 0.841,0.733c0.175,0.283 0.262,0.61 0.262,0.97c0,0.42 -0.119,0.807 -0.349,1.16c-0.234,0.355 -0.559,0.625 -0.978,0.806c-0.42,0.187 -0.947,0.276 -1.579,0.276c-1.12,0 -1.891,-0.21 -2.319,-0.642c-0.431,-0.429 -0.676,-0.973 -0.733,-1.639" style="fill:#fff;"/><path d="M73.175,59.024l6.166,0l0,1.622l-2.068,0l0,4.944l-2.03,0l0,-4.944l-2.068,0l0,-1.622Z" style="fill:#fff;"/><path d="M59.955,59.024l5.437,0l0,1.403l-3.405,0l0,1.042l3.156,0l0,1.341l-3.156,0l0,1.294l3.503,0l0,1.486l-5.535,0l0,-6.566Z" style="fill:#fff;"/><path d="M123.977,54.016l-2.999,0l-0.412,1.404l-2.695,0l3.207,-8.529l2.874,0l3.207,8.529l-2.759,0l-0.423,-1.404Zm-0.548,-1.845l-0.944,-3.07l-0.939,3.07l1.883,0Z" style="fill:#fff;"/><path d="M128.039,46.892l3.916,0c0.771,0 1.39,0.102 1.87,0.31c0.472,0.215 0.867,0.514 1.175,0.905c0.313,0.394 0.534,0.849 0.678,1.369c0.136,0.519 0.207,1.074 0.207,1.652c0,0.914 -0.102,1.617 -0.311,2.123c-0.206,0.504 -0.495,0.923 -0.861,1.261c-0.371,0.34 -0.767,0.567 -1.19,0.678c-0.576,0.157 -1.101,0.231 -1.568,0.231l-3.916,0l0,-8.529Zm2.632,1.932l0,4.659l0.646,0c0.557,0 0.944,-0.06 1.177,-0.181c0.232,-0.121 0.415,-0.34 0.549,-0.642c0.129,-0.304 0.193,-0.795 0.193,-1.479c0,-0.905 -0.142,-1.524 -0.44,-1.853c-0.295,-0.338 -0.784,-0.504 -1.468,-0.504l-0.657,0Z" style="fill:#fff;"/><path d="M110.008,46.892l3.917,0c0.772,0 1.395,0.102 1.875,0.31c0.47,0.215 0.867,0.514 1.175,0.905c0.309,0.394 0.532,0.849 0.676,1.369c0.138,0.519 0.206,1.074 0.206,1.652c0,0.914 -0.099,1.617 -0.31,2.123c-0.21,0.504 -0.495,0.923 -0.865,1.261c-0.366,0.34 -0.761,0.567 -1.184,0.678c-0.576,0.157 -1.103,0.231 -1.573,0.231l-3.917,0l0,-8.529Zm2.638,1.932l0,4.659l0.644,0c0.552,0 0.941,-0.06 1.175,-0.181c0.236,-0.121 0.415,-0.34 0.549,-0.642c0.129,-0.304 0.195,-0.795 0.195,-1.479c0,-0.905 -0.147,-1.524 -0.44,-1.853c-0.295,-0.338 -0.784,-0.504 -1.466,-0.504l-0.657,0Z" style="fill:#fff;"/><path d="M87.495,55.421l0,-8.53l4.394,0c0.814,0 1.436,0.072 1.868,0.211c0.429,0.14 0.776,0.397 1.044,0.78c0.261,0.376 0.393,0.837 0.393,1.377c0,0.476 -0.102,0.882 -0.304,1.226c-0.2,0.345 -0.481,0.621 -0.831,0.836c-0.228,0.138 -0.534,0.248 -0.925,0.335c0.315,0.107 0.542,0.211 0.687,0.315c0.095,0.07 0.238,0.223 0.423,0.448c0.182,0.228 0.306,0.406 0.367,0.53l1.278,2.472l-2.982,0l-1.407,-2.606c-0.181,-0.336 -0.34,-0.555 -0.481,-0.657c-0.189,-0.132 -0.404,-0.195 -0.646,-0.195l-0.229,0l0,3.458l-2.649,0Zm2.649,-5.074l1.111,0c0.119,0 0.351,-0.036 0.695,-0.113c0.181,-0.038 0.321,-0.129 0.432,-0.269c0.11,-0.143 0.161,-0.311 0.161,-0.496c0,-0.276 -0.085,-0.484 -0.259,-0.631c-0.174,-0.151 -0.504,-0.225 -0.982,-0.225l-1.158,0l0,1.734Z" style="fill:#fff;"/><path d="M137.268,46.892l7.063,0l0,1.821l-4.423,0l0,1.354l4.102,0l0,1.743l-4.102,0l0,1.679l4.55,0l0,1.932l-7.19,0l0,-8.529Z" style="fill:#fff;"/><rect x="105.44" y="46.892" width="2.64" height="8.53" style="fill:#fff;"/><path d="M96.269,52.602l2.51,-0.159c0.051,0.406 0.166,0.718 0.332,0.928c0.27,0.349 0.657,0.519 1.165,0.519c0.376,0 0.663,-0.087 0.871,-0.263c0.202,-0.177 0.302,-0.381 0.302,-0.615c0,-0.219 -0.094,-0.416 -0.289,-0.593c-0.198,-0.176 -0.646,-0.338 -1.352,-0.493c-1.156,-0.259 -1.981,-0.606 -2.472,-1.037c-0.495,-0.432 -0.748,-0.98 -0.748,-1.645c0,-0.438 0.129,-0.853 0.382,-1.239c0.255,-0.396 0.636,-0.7 1.146,-0.923c0.51,-0.223 1.207,-0.336 2.098,-0.336c1.09,0 1.926,0.204 2.493,0.608c0.574,0.41 0.914,1.052 1.022,1.937l-2.484,0.146c-0.066,-0.387 -0.204,-0.667 -0.415,-0.839c-0.212,-0.177 -0.506,-0.262 -0.878,-0.262c-0.306,0 -0.535,0.062 -0.69,0.194c-0.155,0.129 -0.236,0.291 -0.236,0.476c0,0.132 0.066,0.253 0.195,0.363c0.121,0.115 0.417,0.217 0.885,0.317c1.152,0.246 1.976,0.497 2.476,0.752c0.497,0.258 0.861,0.57 1.086,0.948c0.227,0.374 0.344,0.797 0.344,1.261c0,0.546 -0.155,1.052 -0.459,1.513c-0.3,0.461 -0.723,0.812 -1.267,1.05c-0.544,0.24 -1.228,0.359 -2.055,0.359c-1.445,0 -2.453,-0.28 -3.012,-0.839c-0.561,-0.559 -0.876,-1.271 -0.95,-2.128" style="fill:#fff;"/><path d="M78.846,46.892l7.063,0l0,1.821l-4.421,0l0,1.354l4.106,0l0,1.743l-4.106,0l0,1.679l4.55,0l0,1.932l-7.192,0l0,-8.529Z" style="fill:#fff;"/><path d="M68.739,46.892l2.759,0l1.922,6.14l1.887,-6.14l2.678,0l-3.165,8.529l-2.856,0l-3.225,-8.529Z" style="fill:#fff;"/><rect x="65.052" y="46.892" width="2.64" height="8.53" style="fill:#fff;"/><path d="M55.034,46.892l2.463,0l3.212,4.72l0,-4.72l2.484,0l0,8.529l-2.484,0l-3.195,-4.68l0,4.68l-2.48,0l0,-8.529Z" style="fill:#fff;"/><path d="M50.643,46.892l2.629,0l0,5.086c0,0.506 -0.079,0.98 -0.236,1.428c-0.157,0.449 -0.402,0.842 -0.738,1.176c-0.336,0.336 -0.686,0.572 -1.058,0.705c-0.512,0.192 -1.127,0.287 -1.843,0.287c-0.417,0 -0.871,-0.025 -1.36,-0.087c-0.491,-0.057 -0.899,-0.174 -1.229,-0.346c-0.329,-0.172 -0.631,-0.417 -0.907,-0.738c-0.273,-0.316 -0.46,-0.644 -0.562,-0.984c-0.163,-0.542 -0.242,-1.018 -0.242,-1.441l0,-5.086l2.629,0l0,5.207c0,0.47 0.13,0.833 0.387,1.091c0.257,0.261 0.614,0.391 1.074,0.391c0.452,0 0.809,-0.128 1.067,-0.383c0.257,-0.255 0.389,-0.625 0.389,-1.099l0,-5.207Z" style="fill:#fff;"/></g></svg>