<svg width="100%" height="100%" viewBox="0 0 316 109" version="1.1" xmlns="http://www.w3.org/2000/svg" style="fill-rule:evenodd;clip-rule:evenodd;stroke-linecap:round;stroke-linejoin:round;stroke-miterlimit:1.5;"><path d="M45.327,54.543c-10.975,11.376 -25.064,19.511 -39.765,25.696c6.364,3.665 14.739,3.874 21.381,2.876c6.625,-0.995 13.237,-4.351 16.46,-10.719c2.793,-5.516 2.92,-11.99 2.213,-18.016c0,0 0.281,-0.436 -0.289,0.163Z" style="fill:#00a64e;"/><path d="M90.709,70.322c-5.161,0.069 -10.212,1.816 -14.899,4.14c0,0 4.027,1.95 7.085,3.669c11.473,6.452 21.511,15.346 30.419,24.986l0.328,0.358c1.187,-6.555 -0.98,-13.786 -3.696,-19.529c-3.595,-7.6 -10.64,-13.673 -19.237,-13.624Z" style="fill:#fcce1a;"/><path d="M56.694,4.699c-5.586,0.047 -11.53,0.857 -16.022,3.435c0,0 5.725,2.433 10.159,4.636c11.049,5.488 21.385,12.458 29.892,21.617c0,0 2.801,-18.725 -8.768,-25.943c-4.459,-2.782 -9.872,-3.751 -15.261,-3.745Z" style="fill:#009ae1;"/><path d="M60.183,13.688c0,0 6.97,39.121 -56.369,65.27c-9.338,3.856 52.5,22.343 43.022,-28.843" style="fill:none;stroke:#000;stroke-width:4px;"/><path d="M96.039,78.498c0,0 6.49,-43.653 -57.165,-69.024c-9.384,-3.74 52.222,-22.985 43.373,28.314" style="fill:none;stroke:#000;stroke-width:4px;"/><path d="M32.589,74.441c0,0 34.491,-19.731 80.435,31.11c6.774,7.496 3.368,-56.956 -41.641,-30.803" style="fill:none;stroke:#000;stroke-width:4px;"/><path d="M244.906,61.502c2.603,0 4.146,-0.926 5.535,-2.411l-1.89,-1.909c-1.061,0.964 -2.006,1.581 -3.549,1.581c-2.314,0 -3.914,-1.928 -3.914,-4.242l0,-0.039c0,-2.314 1.639,-4.204 3.914,-4.204c1.35,0 2.411,0.579 3.452,1.524l1.89,-2.179c-1.253,-1.235 -2.777,-2.083 -5.322,-2.083c-4.146,0 -7.039,3.143 -7.039,6.981l0,0.038c0,3.876 2.95,6.943 6.923,6.943Zm20.943,0c4.165,0 7.193,-3.144 7.193,-6.981l0,-0.039c0,-3.837 -2.989,-6.942 -7.155,-6.942c-4.165,0 -7.193,3.143 -7.193,6.981l0,0.038c0,3.838 2.989,6.943 7.155,6.943Zm-117.75,0c4.165,0 7.193,-3.144 7.193,-6.981l0,-0.039c0,-3.837 -2.989,-6.942 -7.155,-6.942c-4.165,0 -7.193,3.143 -7.193,6.981l0,0.038c0,3.838 2.99,6.943 7.155,6.943Zm26.535,-13.731l0,7.637c0,2.198 1.099,3.336 2.912,3.336c1.813,0 2.912,-1.099 2.912,-3.24l0,-7.733l2.97,0l0,7.618c0,4.088 -2.295,6.093 -5.921,6.093c-3.625,0 -5.843,-2.024 -5.843,-5.997l0,-7.714l2.97,0Zm-35.464,0l0,2.7l-7.308,0l0,2.873l6.441,0l0,2.7l-6.441,0l0,5.226l-2.97,0l0,-13.499l10.278,0Zm116.747,0l0,13.499l-2.969,0l0,-13.499l2.969,0Zm53.206,0l0,10.799l6.73,0l0,2.7l-9.7,0l0,-13.499l2.97,0Zm-145.018,0c1.716,0 3.047,0.482 3.934,1.369c0.752,0.753 1.157,1.813 1.157,3.086l0,0.039c0,2.179 -1.176,3.548 -2.893,4.184l3.298,4.821l-3.471,0l-2.893,-4.319l-2.333,0l0,4.319l-2.97,0l0,-13.499l6.171,0Zm120.642,8.312l0,-8.312l2.932,0l0,13.499l-2.527,0l-6.537,-8.581l0,8.581l-2.931,0l0,-13.499l2.738,0l6.325,8.312Zm-66.704,0l0,-8.312l2.931,0l0,13.499l-2.526,0l-6.537,-8.581l0,8.581l-2.932,0l0,-13.499l2.739,0l6.325,8.312Zm-24.838,-2.604l3.548,-5.708l3.201,0l0,13.499l-2.95,0l0,-8.813l-3.799,5.766l-0.077,0l-3.761,-5.708l0,8.755l-2.912,0l0,-13.499l3.202,0l3.548,5.708Zm38.376,-5.804l5.785,13.595l-3.105,0l-1.234,-3.027l-5.708,0l-1.234,3.027l-3.028,0l5.785,-13.595l2.739,0Zm66.704,0l5.785,13.595l-3.105,0l-1.234,-3.027l-5.708,0l-1.234,3.027l-3.028,0l5.786,-13.595l2.738,0Zm-150.148,11.088c-2.391,0 -4.088,-1.928 -4.088,-4.242l0,-0.039c0,-2.314 1.659,-4.204 4.05,-4.204c2.391,0 4.088,1.929 4.088,4.243l0,0.038c0,2.314 -1.658,4.204 -4.05,4.204Zm117.75,0c-2.391,0 -4.088,-1.928 -4.088,-4.242l0,-0.039c0,-2.314 1.659,-4.204 4.05,-4.204c2.391,0 4.088,1.929 4.088,4.243l0,0.038c0,2.314 -1.658,4.204 -4.05,4.204Zm-33.921,-3.143l-1.793,-4.378l-1.794,4.378l3.587,0Zm66.705,0l-1.794,-4.378l-1.793,4.378l3.587,0Zm-134.759,-1.292c1.446,0 2.276,-0.771 2.276,-1.909l0,-0.039c0,-1.273 -0.887,-1.928 -2.334,-1.928l-2.95,0l0,3.876l3.008,0Zm-16.989,-7.81l2.237,0l2.622,-1.929l-2.526,-1.099l-2.333,3.028Z" style="fill:#0085bf;"/><path d="M249.647,78.133c2.884,0 4.98,-2.176 4.98,-4.833l0,-0.027c0,-2.657 -2.07,-4.806 -4.953,-4.806c-2.884,0 -4.98,2.176 -4.98,4.833l0,0.026c0,2.657 2.069,4.807 4.953,4.807Zm-71.92,0c2.884,0 4.98,-2.176 4.98,-4.833l0,-0.027c0,-2.657 -2.07,-4.806 -4.953,-4.806c-2.884,0 -4.98,2.176 -4.98,4.833l0,0.026c0,2.657 2.069,4.807 4.953,4.807Zm-11.348,0c2.884,0 4.98,-2.176 4.98,-4.833l0,-0.027c0,-2.657 -2.07,-4.806 -4.953,-4.806c-2.884,0 -4.98,2.176 -4.98,4.833l0,0.026c0,2.657 2.069,4.807 4.953,4.807Zm-9.746,0c1.802,0 2.87,-0.641 3.832,-1.669l-1.309,-1.322c-0.734,0.668 -1.388,1.095 -2.456,1.095c-1.602,0 -2.71,-1.335 -2.71,-2.937l0,-0.027c0,-1.602 1.134,-2.91 2.71,-2.91c0.934,0 1.669,0.4 2.389,1.054l1.309,-1.508c-0.868,-0.855 -1.923,-1.442 -3.685,-1.442c-2.87,0 -4.873,2.176 -4.873,4.833l0,0.026c0,2.684 2.043,4.807 4.793,4.807Zm132.879,-9.506l0,5.287c0,1.522 0.761,2.31 2.016,2.31c1.255,0 2.016,-0.761 2.016,-2.243l0,-5.354l2.056,0l0,5.274c0,2.83 -1.589,4.218 -4.099,4.218c-2.51,0 -4.045,-1.401 -4.045,-4.152l0,-5.34l2.056,0Zm-11.134,9.479c2.016,0 3.431,-1.041 3.431,-2.897l0,-0.027c0,-1.629 -1.068,-2.309 -2.964,-2.803c-1.616,-0.414 -2.016,-0.615 -2.016,-1.229l0,-0.026c0,-0.454 0.414,-0.815 1.202,-0.815c0.787,0 1.602,0.347 2.429,0.921l1.068,-1.548c-0.948,-0.761 -2.109,-1.188 -3.471,-1.188c-1.909,0 -3.271,1.121 -3.271,2.817l0,0.026c0,1.856 1.215,2.377 3.098,2.857c1.562,0.401 1.882,0.668 1.882,1.188l0,0.027c0,0.548 -0.507,0.881 -1.348,0.881c-1.068,0 -1.95,-0.44 -2.791,-1.134l-1.215,1.455c1.122,1.001 2.55,1.495 3.966,1.495Zm-58.53,-3.725l0,-5.754l2.03,0l0,9.346l-1.749,0l-4.526,-5.942l0,5.942l-2.029,0l0,-9.346l1.895,0l4.379,5.754Zm-22.015,-5.754c2.937,0 4.967,2.016 4.967,4.646l0,0.027c0,2.63 -2.03,4.673 -4.967,4.673l-3.645,0l0,-9.346l3.645,0Zm114.415,0c1.068,0 1.909,0.294 2.443,0.828c0.428,0.427 0.641,0.948 0.641,1.589l0,0.026c0,1.055 -0.56,1.642 -1.228,2.016c1.081,0.414 1.749,1.042 1.749,2.296l0,0.027c0,1.709 -1.389,2.564 -3.498,2.564l-4.446,0l0,-9.346l4.339,0Zm-179.74,0c2.937,0 4.967,2.016 4.967,4.646l0,0.027c0,2.63 -2.03,4.673 -4.967,4.673l-3.644,0l0,-9.346l3.644,0Zm13.845,0l0,1.829l-5.007,0l0,1.896l4.406,0l0,1.829l-4.406,0l0,1.962l5.074,0l0,1.83l-7.116,0l0,-9.346l7.049,0Zm114.375,0c1.188,0 2.109,0.334 2.724,0.948c0.52,0.521 0.801,1.255 0.801,2.136l0,0.027c0,1.508 -0.815,2.456 -2.003,2.897l2.283,3.338l-2.403,0l-2.003,-2.991l-1.615,0l0,2.991l-2.056,0l0,-9.346l4.272,0Zm41.734,-0.067l4.005,9.413l-2.149,0l-0.854,-2.097l-3.952,0l-0.855,2.097l-2.096,0l4.005,-9.413l1.896,0Zm-113.654,0.067c1.188,0 2.109,0.334 2.724,0.948c0.52,0.521 0.801,1.255 0.801,2.136l0,0.027c0,1.508 -0.815,2.456 -2.003,2.897l2.283,3.338l-2.403,0l-2.003,-2.991l-1.615,0l0,2.991l-2.056,0l0,-9.346l4.272,0Zm22.87,0l0,1.829l-5.007,0l0,1.896l4.406,0l0,1.829l-4.406,0l0,1.962l5.073,0l0,1.83l-7.115,0l0,-9.346l7.049,0Zm17.542,-0.067l4.006,9.413l-2.15,0l-0.854,-2.097l-3.952,0l-0.854,2.097l-2.096,0l4.005,-9.413l1.895,0Zm43.938,0.067l0,1.829l-5.007,0l0,1.896l4.406,0l0,1.829l-4.406,0l0,1.962l5.073,0l0,1.83l-7.116,0l0,-9.346l7.05,0Zm-34.846,0c2.937,0 4.967,2.016 4.967,4.646l0,0.027c0,2.63 -2.03,4.673 -4.967,4.673l-3.644,0l0,-9.346l3.644,0Zm-71.906,7.61c-1.656,0 -2.831,-1.335 -2.831,-2.937l0,-0.027c0,-1.602 1.148,-2.91 2.804,-2.91c1.655,0 2.83,1.335 2.83,2.937l0,0.026c0,1.603 -1.148,2.911 -2.803,2.911Zm11.348,0c-1.656,0 -2.831,-1.335 -2.831,-2.937l0,-0.027c0,-1.602 1.149,-2.91 2.804,-2.91c1.655,0 2.83,1.335 2.83,2.937l0,0.026c0,1.603 -1.148,2.911 -2.803,2.911Zm71.92,0c-1.656,0 -2.831,-1.335 -2.831,-2.937l0,-0.027c0,-1.602 1.149,-2.91 2.804,-2.91c1.655,0 2.83,1.335 2.83,2.937l0,0.026c0,1.603 -1.148,2.911 -2.803,2.911Zm62.681,-0.067c0.908,0 1.455,-0.32 1.455,-1.014l0,-0.027c0,-0.628 -0.467,-1.015 -1.522,-1.015l-2.376,0l0,2.056l2.443,0Zm-74.043,-0.053c1.682,0 2.817,-1.135 2.817,-2.791l0,-0.026c0,-1.656 -1.135,-2.817 -2.817,-2.817l-1.588,0l0,5.634l1.588,0Zm-40.479,0c1.682,0 2.817,-1.135 2.817,-2.791l0,-0.026c0,-1.656 -1.135,-2.817 -2.817,-2.817l-1.589,0l0,5.634l1.589,0Zm-65.325,0c1.683,0 2.817,-1.135 2.817,-2.791l0,-0.026c0,-1.656 -1.134,-2.817 -2.817,-2.817l-1.588,0l0,5.634l1.588,0Zm96.98,-2.056l-1.242,-3.031l-1.242,3.031l2.484,0Zm73.241,0l-1.241,-3.031l-1.242,3.031l2.483,0Zm-114.054,-0.895c1.001,0 1.575,-0.534 1.575,-1.321l0,-0.027c0,-0.881 -0.614,-1.335 -1.616,-1.335l-2.042,0l0,2.683l2.083,0Zm71.92,0c1.001,0 1.575,-0.534 1.575,-1.321l0,-0.027c0,-0.881 -0.614,-1.335 -1.616,-1.335l-2.042,0l0,2.683l2.083,0Zm51.213,-0.761c0.908,0 1.482,-0.293 1.482,-0.988l0,-0.026c0,-0.615 -0.481,-0.962 -1.349,-0.962l-2.029,0l0,1.976l1.896,0Z" style="fill:#888;"/></svg>